<svg xmlns="http://www.w3.org/2000/svg" id="Layer_2" data-name="Layer 2" viewBox="0 0 250.21 118.75"><defs><style>      .cls-1 {        fill: #daff96;      }      .cls-1, .cls-2 {        stroke-width: 0px;      }      .cls-2 {        fill: #0027ff;      }    </style></defs><g id="Layer_1-2" data-name="Layer 1"><g><path class="cls-1" d="m94.41,61.33c1.28,1.32,1.77,2.95,1.74,4.75,0,.55-.36.6-.78.6h-6.01c-1.98,0-3.96-.03-5.93,0-.67,0-.88-.24-.86-.9.08-3.66,2.77-6.32,6.45-6.41,2.09-.06,3.92.43,5.4,1.95h0Z"></path><path class="cls-2" d="m96.15,66.07c0,.55-.36.6-.78.6h-6.01c-1.98,0-3.96-.03-5.93,0-.67,0-.88-.24-.86-.9.08-3.66,2.77-6.32,6.45-6.41,2.09-.06,3.92.43,5.4,1.95,1.28,1.32,1.77,2.95,1.74,4.75h0Z"></path><path class="cls-2" d="m119.05,91.99c-.02-22.94-.05-45.9,0-68.85.02-3.59-1.23-6.55-3.66-9.05-3.51-3.58-7.08-7.11-10.65-10.62-2.36-2.32-5.22-3.47-8.55-3.47-23.62,0-47.23,0-70.85,0-1.18,0-2.36,0-3.54.09-2.71.2-5.11,1.15-7.04,3.02-3.92,3.81-7.8,7.67-11.62,11.6C1.11,16.8.02,19.38.02,22.3c-.02,24.36-.02,48.74-.02,73.11,0,3.44.98,6.51,3.47,8.99,3.53,3.52,7.09,7.04,10.64,10.54,2.68,2.63,5.84,3.85,9.66,3.82,11.86-.1,23.71-.04,35.57-.04,12.3,0,24.58,0,36.87,0,3.26,0,6.13-1.06,8.45-3.35,3.75-3.69,7.48-7.4,11.16-11.15,1.84-1.87,2.91-4.16,3.21-6.8.21-1.81.03-3.6.02-5.41Zm-58.96-3.48c-.12.36-.26.73-.39,1.09-.45,1.19-1.34,1.83-2.59,1.85-1.81.04-3.62.04-5.43,0-1.47-.04-2.35-.75-2.81-2.28-1.11-3.71-2.2-7.43-3.29-11.14-1.16-3.95-2.33-7.9-3.5-11.84-.08-.27-.1-.57-.43-.93-.41,1.4-.79,2.69-1.16,3.98-1.84,6.36-3.67,12.72-5.5,19.08-.78,2.71-1.39,3.16-4.2,3.16-1.42,0-2.85,0-4.27,0-1.79-.02-2.59-.58-3.17-2.28-3.05-8.98-6.02-17.99-8.94-27.02-.91-2.84-1.86-5.68-2.79-8.51-.11-.32-.2-.65-.24-.98-.23-1.53.59-2.48,2.13-2.48,2.37-.02,4.73.02,7.1,0,1.32-.02,2.19.61,2.72,1.77.41.88.6,1.83.85,2.76,1.64,6.24,3.29,12.47,4.93,18.71.06.24.07.52.32.75.3-.35.35-.79.46-1.19,1.84-6.56,3.67-13.12,5.5-19.68.14-.51.32-1.02.54-1.49.52-1.07,1.37-1.64,2.59-1.63,2.17.02,4.34.03,6.52,0,1.36-.02,2.26.59,2.77,1.8.67,1.61,1.07,3.29,1.58,4.95,1.56,5.11,3.09,10.23,4.64,15.35.11.36.24.72.39,1.17.29-.35.3-.68.37-.99,1.54-6.26,3.05-12.54,4.57-18.8.09-.35.19-.69.28-1.05.57-1.85,1.32-2.41,3.25-2.41h6.73c1.69,0,2.55,1.06,2.13,2.7-.57,2.26-1.41,4.44-2.14,6.66-3.18,9.65-6.37,19.3-9.54,28.95h0Zm47.75-16.65c-.2,1.74-1.28,2.71-3.05,2.72-3.55,0-7.1,0-10.65,0h-10.29c-1.29,0-1.27,0-1.14,1.29.26,2.45,1.48,4.29,3.58,5.55,1.97,1.18,6.08,1.24,8.18-1.14,2.31-2.64,2.53-2.15,5.42-2.19,1.6-.02,3.19,0,4.79,0,1.71.02,2.57,1.21,1.99,2.81-.76,2.06-1.92,3.89-3.43,5.48-3.37,3.55-7.53,5.53-12.4,5.83-5.98.36-11.24-1.41-15.36-5.85-2.76-2.96-4.32-6.59-4.79-10.63-.47-4.01-.54-8.04.4-12,1.01-4.27,3.05-7.98,6.69-10.59,8.24-5.94,18.63-4.65,24.74,1.74,3.44,3.6,5.21,7.99,5.32,13.01.03,1.32.18,2.64.02,3.97h0Z"></path><path class="cls-1" d="m71.76,52.9c-.57,2.26-1.41,4.44-2.14,6.66-3.18,9.65-6.37,19.3-9.54,28.95h0c-.12.36-.26.73-.39,1.09-.45,1.19-1.34,1.83-2.59,1.85-1.81.04-3.62.04-5.43,0-1.47-.04-2.35-.75-2.81-2.28-1.11-3.71-2.2-7.43-3.29-11.14-1.16-3.95-2.33-7.9-3.5-11.84-.08-.28-.1-.57-.43-.93-.41,1.4-.79,2.69-1.16,3.98-1.84,6.36-3.67,12.72-5.5,19.08-.78,2.71-1.39,3.16-4.2,3.16-1.42,0-2.85,0-4.27,0-1.79-.02-2.59-.58-3.17-2.28-3.05-8.98-6.02-17.99-8.94-27.02-.91-2.84-1.86-5.68-2.79-8.51-.11-.32-.2-.65-.24-.98-.23-1.53.59-2.48,2.13-2.48,2.37-.02,4.73.02,7.1,0,1.32-.02,2.19.61,2.72,1.77.41.88.6,1.83.85,2.76,1.64,6.24,3.29,12.47,4.93,18.71.06.24.07.52.32.75.3-.35.35-.79.46-1.19,1.84-6.56,3.67-13.12,5.5-19.68.14-.51.32-1.02.54-1.49.52-1.07,1.37-1.64,2.59-1.63,2.17.02,4.34.03,6.52,0,1.36-.02,2.26.59,2.77,1.8.67,1.61,1.07,3.29,1.58,4.95,1.56,5.11,3.09,10.23,4.64,15.35.11.36.24.72.39,1.17.29-.35.3-.68.37-.99,1.54-6.26,3.05-12.54,4.57-18.8.09-.35.19-.69.28-1.05.57-1.85,1.32-2.41,3.25-2.41h6.73c1.69,0,2.55,1.06,2.13,2.7Z"></path><path class="cls-1" d="m107.81,67.89c-.11-5.01-1.87-9.4-5.32-13.01-6.11-6.39-16.5-7.68-24.74-1.74-3.63,2.62-5.67,6.33-6.69,10.59-.94,3.96-.87,7.99-.4,12,.47,4.04,2.03,7.67,4.79,10.63,4.12,4.44,9.38,6.21,15.36,5.85,4.87-.3,9.03-2.28,12.4-5.83,1.51-1.6,2.66-3.42,3.43-5.48.59-1.61-.28-2.79-1.99-2.81-1.6,0-3.19-.02-4.79,0-2.89.04-3.12-.44-5.42,2.19-2.1,2.38-6.21,2.32-8.18,1.14-2.1-1.25-3.32-3.1-3.58-5.55-.13-1.29-.15-1.29,1.14-1.29h10.29c3.55,0,7.1,0,10.65,0,1.78,0,2.85-.98,3.05-2.72h0c.16-1.32,0-2.64-.02-3.97Zm-12.45-1.22h-6.01c-1.98,0-3.96-.03-5.93,0-.67,0-.88-.24-.86-.9.08-3.66,2.77-6.32,6.45-6.41,2.09-.06,3.92.43,5.4,1.95,1.28,1.32,1.77,2.95,1.74,4.75,0,.55-.36.6-.78.6h0Z"></path><g><path class="cls-2" d="m159.49,87.1v-30.77c0-.91.09-1.83.07-2.74h0c-.02-1.36-1.14-2.46-2.48-2.47-2.34-.02-4.69,0-7.02-.02-.82,0-1.44.28-1.96.89-.47.55-.6,1.17-.6,1.87,0,5.93,0,11.84,0,17.77v17.77c0,1.75.97,2.72,2.73,2.72,2.2,0,4.39,0,6.59,0,1.78,0,2.84-1.14,2.74-2.94-.04-.7-.07-1.39-.07-2.09Z"></path><path class="cls-2" d="m130.5,92.15h-.02c2.18.02,4.34,0,6.52,0,1.94,0,2.88-.93,2.88-2.87V27.88c0-1.13.02-2.26,0-3.4-.02-1.36-.75-2.27-2.1-2.4-2.57-.23-5.16-.14-7.73-.04-1.15.04-1.77.76-2.11,1.78-.15.43-.12.86-.12,1.29,0,20.06,0,40.12,0,60.18,0,1.4-.03,2.8,0,4.19.03,1.63,1.05,2.65,2.68,2.66Z"></path><path class="cls-2" d="m153.38,37.66c4.19.04,6.89-2.64,7-6.71.09-3.66-2.45-6.83-6.86-6.85-4.16-.02-6.99,3.04-6.76,6.75-.21,3.72,2.43,6.77,6.62,6.81Z"></path><path class="cls-2" d="m195.64,92.15c2.18,0,4.35-.08,6.52.03,1.54.08,2.69-1.26,2.68-2.71-.06-7.08-.04-14.16-.04-21.24h0c0-.97-.02-1.93-.14-2.89-.35-2.79-.91-5.51-2.18-8.04-1.59-3.14-3.98-5.32-7.38-6.41-1.44-.45-2.9-.53-4.36-.52-2.18.02-4.39-.04-6.5.8-1.69.67-3.21,1.57-4.39,2.95-.14.17-.17.54-.48.42-.24-.1-.09-.39-.08-.59.03-1.45-.99-2.78-2.26-2.79-2.49-.04-4.97-.02-7.46-.03-.71,0-1.24.32-1.72.79-.59.59-.65,1.3-.65,2.07,0,5.87,0,11.76,0,17.63h0v17.91c0,1.64.95,2.61,2.59,2.62,2.34,0,4.68,0,7.02,0,1.05,0,1.82-.58,2.2-1.56.19-.49.16-.99.16-1.5,0-6.94,0-13.87,0-20.81,0-1.5.13-2.97.83-4.35,1.28-2.51,3.31-3.74,6.12-3.73,2.74,0,4.65,1.32,5.89,3.73.71,1.38.8,2.87.81,4.36.03,4.37,0,8.71,0,13.08,0,2.67-.02,5.35,0,8.02.02,1.89.94,2.78,2.81,2.79Z"></path><path class="cls-2" d="m249.51,88.3c-3.96-6.36-7.91-12.73-11.88-19.09h0v-.02c-.61-.98-.64-.98.13-1.85,3.14-3.46,6.3-6.91,9.45-10.37.91-.99,1.9-1.94,2.47-3.19.63-1.4-.18-2.65-1.7-2.65-2.78,0-5.56,0-8.33-.04-1.02-.02-1.85.32-2.51,1.05-1.09,1.19-2.19,2.37-3.24,3.6-3.07,3.61-6.3,7.08-9.35,10.78.04-1.45-.14-2.87-.14-4.31,0-12.4.02-24.81.02-37.21,0-.31,0-.63-.06-.93-.19-1.12-.88-1.79-1.99-1.98-1.3-.22-2.6-.1-3.91-.1s-2.71-.12-4.05.09c-1.24.2-1.96.99-2,2.26-.03.82,0,1.64,0,2.46v61.57c0,.48-.02.97,0,1.45.04,1.32,1.03,2.32,2.35,2.32,2.44.02,4.87,0,7.32,0,.96,0,1.58-.5,2.01-1.3.27-.51.3-1.06.3-1.61,0-2.43,0-4.86,0-7.3,0-.54.03-1.06.41-1.5,1.05-1.2,2.09-2.4,3.13-3.6.33-.39.51-.3.74.09,1.16,1.94,2.34,3.88,3.52,5.81,1.57,2.57,3.13,5.15,4.71,7.71.54.88,1.21,1.69,2.37,1.69,3.19.03,6.37.02,9.56,0,.83,0,1.26-.47,1.36-1.3.12-.93-.2-1.76-.67-2.53Z"></path><path class="cls-2" d="m203.78,102.22c-1-.95-2.34-1.39-3.92-1.39h-6.85v15.05h2.95v-4.87h3.9c1.59,0,2.93-.43,3.92-1.36h0c.99-.96,1.47-2.23,1.47-3.73s-.48-2.76-1.47-3.7h0Zm-7.82,1.46h3.8c.97,0,1.58.24,1.95.59.38.36.61.88.61,1.64s-.23,1.3-.61,1.66c-.37.35-.99.59-1.95.59h-3.8v-4.49Z"></path><path class="cls-2" d="m186.95,109.35c0,.97-.19,1.69-.51,2.2-.35.56-.77.95-1.29,1.21,0,0,0,0-.02,0-.55.25-1.14.38-1.76.38s-1.19-.13-1.76-.39h0c-.51-.26-.94-.64-1.29-1.21h0c-.3-.52-.49-1.23-.49-2.2v-8.52h-2.94v8.47c0,1.3.27,2.48.83,3.5.55,1.02,1.32,1.82,2.3,2.4h.02c.99.56,2.1.83,3.35.83s2.38-.28,3.37-.85c.99-.58,1.78-1.37,2.33-2.4.56-1.02.83-2.19.83-3.49v-8.46h-2.94v8.52Z"></path><path class="cls-2" d="m172.51,102.93h0c-.67-.74-1.47-1.28-2.42-1.68-.95-.4-1.98-.59-3.1-.59s-2.15.19-3.1.59c-.93.4-1.75.95-2.44,1.67-.67.72-1.18,1.53-1.54,2.45-.36.93-.54,1.93-.54,2.98s.18,2.04.54,2.97c.36.92.88,1.74,1.54,2.45.69.73,1.51,1.29,2.44,1.68.95.4,1.99.59,3.1.59s2.15-.19,3.1-.59c.94-.39,1.74-.94,2.42-1.67h0c.67-.72,1.2-1.53,1.56-2.46.36-.93.54-1.93.54-2.97s-.18-2.05-.54-2.98c-.36-.92-.89-1.73-1.56-2.44Zm-1.41,7.88c-.37.72-.9,1.28-1.61,1.71-.67.4-1.49.62-2.5.62s-1.82-.22-2.5-.62c0,0,0,0,0,0-.7-.43-1.23-.99-1.62-1.69-.37-.74-.56-1.55-.56-2.47s.19-1.74.56-2.46c.38-.72.91-1.27,1.62-1.69h0c.68-.43,1.51-.65,2.5-.65s1.83.22,2.5.64c.7.43,1.23.98,1.6,1.69.38.73.58,1.53.58,2.47s-.19,1.73-.58,2.46h0Z"></path><path class="cls-2" d="m157.79,114.79l-3.09-4.74c.26-.1.52-.21.76-.35h0c.62-.34,1.12-.82,1.51-1.43h0c.43-.67.62-1.52.62-2.48,0-1.46-.48-2.7-1.47-3.62h0c-.99-.92-2.28-1.35-3.81-1.35h-7.24v15.05h2.95v-5.24h3.66l3.1,4.92.2.33h3.51l-.7-1.08h0Zm-9.77-11.11h4.11c.85,0,1.46.22,1.9.59.42.36.64.83.64,1.52,0,.59-.14.95-.35,1.18-.26.29-.58.49-.96.6-.45.13-.89.19-1.3.19h-4.03v-4.09Z"></path><path class="cls-2" d="m131.44,105.87c.37-.71.89-1.26,1.57-1.68h0c.67-.42,1.53-.64,2.48-.64s1.71.19,2.32.55c.64.36,1.13.85,1.47,1.47l.2.35h3.17l-.43-.98c-.57-1.27-1.45-2.29-2.65-3.08-1.2-.82-2.6-1.21-4.2-1.21-1.47,0-2.79.34-3.93,1.05-1.11.69-1.98,1.62-2.58,2.79-.6,1.17-.91,2.46-.91,3.85s.29,2.68.88,3.84c.59,1.17,1.45,2.1,2.54,2.81h0c1.14.7,2.46,1.03,3.96,1.03.89,0,1.7-.13,2.43-.42h0c.69-.27,1.3-.6,1.81-1.04h0s.03-.02.04-.03c0,0-.04.03-.04.03v1.3h2.81v-8.65h-7.81v2.79h4.95c-.08.52-.27.96-.52,1.35h0c-.38.57-.89,1-1.52,1.3-.63.31-1.3.47-2.02.47-1,0-1.81-.22-2.49-.62-.68-.43-1.19-.98-1.54-1.69-.36-.74-.55-1.54-.55-2.48s.2-1.75.54-2.48h0Zm8.16,8.62h0s.04.06.04.06l-.04-.06Z"></path></g></g></g></svg>