<?xml version="1.0" encoding="UTF-8"?> <svg xmlns="http://www.w3.org/2000/svg" xmlns:xlink="http://www.w3.org/1999/xlink" id="Layer_2" data-name="Layer 2" viewBox="0 0 1253.67 451.95"><defs><style> .cls-1 { clip-path: url(#clippath); } .cls-2 { fill: none; } .cls-2, .cls-3 { stroke-width: 0px; } .cls-4 { clip-path: url(#clippath-1); } </style><clipPath id="clippath"><rect class="cls-2" x=".39" y=".39" width="447.27" height="449.48" transform="translate(-.39 .39) rotate(-.1)"></rect></clipPath><clipPath id="clippath-1"><rect class="cls-2" x=".39" y=".39" width="447.27" height="449.48" transform="translate(-.39 .39) rotate(-.1)"></rect></clipPath></defs><g id="Layer_1-2" data-name="Layer 1"><g><g><path class="cls-3" d="M482.74,114.22l39.3-.07.39,223.64-39.3.07s-.39-223.64-.39-223.64ZM482.63,50.03c0-5.89,1.91-10.72,5.79-15.01,3.88-4.29,8.24-6.45,13.55-6.46,5.32,0,10.17,2.14,13.57,6.42,4.36,4.27,6.33,9.1,6.34,14.99s-1.91,10.72-5.79,15.01c-3.88,4.29-8.74,6.45-14.05,6.46s-9.71-2.14-13.57-6.42c-3.86-4.27-5.83-9.1-5.84-14.99Z"></path><path class="cls-3" d="M1006.53,113.37l39.3-.07.39,223.64-39.3.07-.39-223.64h0ZM1006.42,49.19c0-5.89,1.9-10.72,5.79-15.01,3.88-4.29,8.24-6.45,13.55-6.46,5.32,0,10.17,2.14,13.57,6.42,3.9,4.27,5.83,9.1,5.84,14.99s-1.91,10.72-5.79,15.01c-3.38,4.29-8.24,6.45-13.55,6.46-5.32,0-10.17-2.14-13.57-6.42-3.9-4.27-5.83-9.1-5.84-14.99h0Z"></path><path class="cls-3" d="M775.72,411.21c-5.81,0-11.14-1.04-15.53-2.64-4.36-1.6-7.75-4.27-10.68-7.49-2.93-3.22-5.33-6.94-7.77-11.76-1.93-4.28-3.91-9.61-5.84-14.99l-12.66-35.27,84.49-225.39-45.12.08-60.8,174.54h-.97l-37.53-111.21h0c0-.56-.5-1.06-.51-1.61l-6.35-18.72c-8.29-24.05-28.69-40.63-51.97-42.16-2.93-.55-6.32-.54-9.71-.54-5.81,0-11.13.56-16.99,1.09-5.85.52-11.13,2.18-16.49,4.85l4.96,38c7.74-3.24,15.02-4.85,22.8-4.86,5.81,0,10.67,1.04,15.03,2.64,3.89,1.61,7.75,4.27,10.68,7.49s5.33,6.94,7.3,11.22c.97,1.61,1.47,3.72,2.43,5.89l75.03,206.4c3.41,9.61,7.31,18.71,10.72,26.72,3.91,8,8.27,14.99,13.59,20.32,5.33,5.88,11.65,10.15,18.94,13.36,7.29,3.21,16.5,4.81,27.17,4.79,5.81,0,11.64-.57,17.45-1.09,5.81-.56,11.63-2.69,16.99-4.86l-4.93-38.51c-8.24,2.13-16.02,3.71-23.77,3.72h.03Z"></path><path class="cls-3" d="M842.12,113.64l39.3-.07.06,34.24h.97c2.41-5.9,6.3-11.24,10.64-16.08s9.2-9.12,14.54-12.31c5.32-3.23,11.12-6.46,17.44-8.04,6.31-2.17,12.6-3.24,19.38-3.25,6.32,0,12.14,1.04,17.45,2.64l-1.85,45.47c-3.39-1.05-6.32-1.6-9.71-2.14-3.39-.55-6.32-1.05-9.71-1.04-19.38.03-33.93,5.94-44.08,17.74-10.15,11.79-14.97,29.98-14.93,54.05l.2,112.37-39.3.07-.39-223.64h0Z"></path><path class="cls-3" d="M1217.59,169.23c-4.87-6.43-10.19-11.76-17.02-16.03-6.79-4.27-15.04-6.41-25.21-6.4-9.21.02-17.45,2.19-24.23,6.48-6.77,4.29-10.15,10.74-10.14,18.74,0,6.44,1.94,11.77,5.84,16.05,3.9,4.27,8.76,7.49,14.08,10.15s11.14,4.26,17.01,5.86c6.32,1.05,11.14,2.14,15.53,3.2,8.25,2.14,16.5,4.81,23.79,7.97,7.29,3.21,13.57,7.48,19.4,12.25,5.33,4.82,9.72,11.21,12.63,18.16,2.94,7.49,4.38,16.05,4.4,26.22.02,12.84-2.38,23.57-7.23,32.13-4.84,9.12-11.11,16.08-19.34,21.98-8.24,5.91-16.98,9.65-26.64,12.33-10.16,2.69-19.88,3.76-30.05,3.78-17,.03-32.03-2.62-45.13-8.49-13.12-5.87-24.27-16.02-34.5-30.97l29.54-26.28c6.33,6.94,13.58,12.82,21.37,18.14,7.75,5.32,17.46,7.98,28.64,7.96,4.86,0,10.17-.56,15.02-1.64,4.86-1.06,9.7-2.69,13.55-5.36,3.89-2.16,7.27-5.35,9.69-9.12,2.42-3.73,3.88-8.01,3.87-12.29,0-6.44-1.94-11.23-5.35-15.5-3.4-4.28-7.76-7.49-13.12-9.6-4.86-2.15-10.68-4.26-16-5.87-5.82-1.6-10.68-2.65-15.03-3.7-8.25-2.14-16.5-4.81-23.79-7.47-7.75-2.66-14.07-6.41-19.9-11.2-5.82-4.82-10.69-10.7-14.09-18.16-3.4-7.49-5.35-16.05-5.37-26.72-.02-11.78,2.39-21.95,6.73-30.52s10.64-16.08,17.91-21.43c7.27-5.91,15.97-10.19,25.17-12.88,9.21-2.68,18.91-4.31,28.63-4.33,14.06-.02,27.17,2.62,40.28,8.49,12.61,5.87,22.84,14.96,30.6,28.29l-31.59,25.73v.04Z"></path></g><g class="cls-1"><g class="cls-4"><path class="cls-3" d="M30.94,113.56l.38,223.82,193.07,111.58,192.7-112.23-.38-223.82L223.64,1.32,30.94,113.56ZM299.56,268.86c-47.98-21.33-103.05-21.24-150.96.25,42.28-31.02,69.73-78.89,75.26-131.2,5.7,52.29,33.31,100.07,75.7,130.95M315.85,279.47l86.32,49.89-51.37-16.17c-74.7-27.92-168.8-28.88-245.58-2.5l-58.76,19.12,85.9-50.03c56.54-32.93,126.85-33.05,183.49-.31M42.63,120.31l75.5-43.98c-43.01,35.37-66.07,76.13-75.35,133.48l-.15-89.51h0ZM42.8,225.41c8.13-70.64,34.6-116.96,89.47-157.31l72.13-42.02-34.32,34.84c-78.91,80.57-98.27,136.35-116.99,206.37l-10.16,39.7-.14-81.58h.01ZM42.96,315.64l12.24-47.81c18.64-69.68,37.9-125.2,116.44-205.39l39.9-40.51,5.56-3.24c-32.86,65.65-137.46,243-174.13,303.71v-6.76h-.01ZM42.97,326.57C78.41,268.05,188.86,80.93,220.5,16.71l.24-.14-13.18,61.97c-15.57,79.56-63.16,160.51-124.24,211.28l-40.35,37.3v-.55ZM84.75,291.46c61.4-51.04,109.27-132.46,124.93-212.48l12.9-60.69.17,99.77c.11,65.67-34.94,126.92-91.48,159.85l-86.16,50.18,39.63-36.63h.01ZM224.36,435.41l-75.69-43.75c25.65,9.75,50,14.64,74.58,14.6,25.27-.04,50.8-5.31,78.22-15.77l-77.11,44.91h0ZM314.83,382.72c-64.94,28.24-118.09,28.36-180.28.78l-72.28-41.77,47.18,12.45c47.85,12.48,85.8,17.34,119.25,17.28,42.68-.07,78.01-8.15,117.08-18.64l39.29-11.01-70.25,40.91h.01ZM392.53,337.47l-47.32,13.25c-69.36,18.62-126.84,29.62-235.22,1.36l-54.86-14.47-5.58-3.23c72.98-4.22,278.13-1.86,348.8-.3l-5.82,3.39h0ZM401.94,331.99c-68.16-1.58-284.64-4.15-355.79.43l-.24-.14,60-19.52c76.34-26.23,169.9-25.28,244.19,2.49l52.31,16.47-.47.28h0ZM405.04,119.7l.15,87.7c-8.98-55.12-32.58-95.58-77.36-132.33l77.22,44.63h-.01ZM314.39,67.31c56.81,42.4,83.49,88.6,90.82,156.53l.14,83.78-12.86-47.28c-29.98-108.96-68.37-153.69-119.34-205l-29.13-28.69,70.38,40.67h-.01ZM236.54,22.32l35.08,34.55c50.73,51.06,88.95,95.59,118.78,204.04l14.96,54.99v6.46c-40.14-61.43-140.67-241.14-174.66-303.41l5.83,3.37h.01ZM227.12,16.87c32.71,60.09,138.73,249.77,178.26,309.43v.28l-46.82-42.46c-60.78-53.33-106.74-135.22-119.95-213.77l-11.97-53.77.48.28h0ZM224.74,17.99l11.75,52.8c13.28,78.96,59.51,161.34,120.64,214.97l45.86,41.58-86.07-49.74c-56.64-32.74-91.9-93.87-92.01-159.54l-.17-100.07h0Z"></path></g></g></g></g></svg> 