<?xml version="1.0" encoding="utf-8"?>
<!-- Generator: Adobe Illustrator 21.0.0, SVG Export Plug-In . SVG Version: 6.00 Build 0)  -->
<svg version="1.1" id="Layer_1" xmlns="http://www.w3.org/2000/svg" xmlns:xlink="http://www.w3.org/1999/xlink" x="0px" y="0px"
	 viewBox="0 0 3220 608" style="enable-background:new 0 0 3220 608;" xml:space="preserve">
<style type="text/css">
	.st0{fill:#454C5B;}
	.st1{fill:#75BE56;}
	.st2{fill:#8FBF7F;}
	.st3{fill:#B2CEA7;}
	.st4{fill:#FFFFFF;}
</style>
<rect class="st0" width="3220" height="608"/>
<g>
	<circle class="st1" cx="453.1" cy="149" r="70.4"/>
	<circle class="st1" cx="453.1" cy="304" r="70.4"/>
	<circle class="st1" cx="453.1" cy="459" r="70.4"/>
	<circle class="st2" cx="312.3" cy="228.6" r="70.4"/>
	<circle class="st2" cx="312.3" cy="388.7" r="70.4"/>
	<circle class="st3" cx="171.6" cy="304" r="70.4"/>
</g>
<g>
	<g>
		<path class="st4" d="M768.7,226.6c7.5,8.9,11.3,20.4,11.3,34.4c0,18-6.7,31.9-20,41.6c-13.3,9.7-33,14.6-59,14.6h-96.6v-210h90.6
			c23.4,0,41.6,4.7,54.5,14.1c12.9,9.4,19.4,22.7,19.4,39.9c0,11.6-2.9,21.5-8.6,29.5c-5.7,8.1-13.6,14.2-23.5,18.2
			C750.6,211.8,761.2,217.7,768.7,226.6z M626.7,125.4v76.2h66.9c17,0,30.1-3.2,39.3-9.8c9.2-6.5,13.8-15.9,13.8-28.4
			c0-12.4-4.6-21.8-13.8-28.4c-9.2-6.5-22.3-9.8-39.3-9.8H626.7z M743.4,289.2c9.6-6.4,14.4-16.4,14.4-30c0-26.2-19-39.3-57-39.3
			h-74.1v78.9h74.1C719.6,298.8,733.8,295.6,743.4,289.2z"/>
		<path class="st4" d="M974.1,317.1l-48-67.5c-5.4,0.6-11,0.9-16.8,0.9h-56.4v66.6h-22.2v-210h78.6c26.8,0,47.8,6.4,63,19.2
			c15.2,12.8,22.8,30.4,22.8,52.8c0,16.4-4.2,30.3-12.5,41.5c-8.3,11.3-20.2,19.5-35.5,24.5l51.3,72H974.1z M956.4,217.8
			c11-9.2,16.5-22.1,16.5-38.7c0-17-5.5-30-16.5-39.1c-11-9.1-26.9-13.6-47.7-13.6h-55.8v105.3h55.8
			C929.5,231.6,945.4,227,956.4,217.8z"/>
		<path class="st4" d="M1047.6,107.1h22.2v210h-22.2V107.1z"/>
		<path class="st4" d="M1286.1,212.1h21.3v80.1c-9.8,8.6-21.4,15.2-34.8,19.8c-13.4,4.6-27.5,6.9-42.3,6.9c-21,0-39.9-4.6-56.7-13.8
			c-16.8-9.2-30-21.9-39.6-38.3c-9.6-16.3-14.4-34.5-14.4-54.8c0-20.2,4.8-38.4,14.4-54.8c9.6-16.3,22.8-29,39.6-38.3
			c16.8-9.2,35.8-13.8,57-13.8c16,0,30.7,2.5,44.1,7.6c13.4,5.1,24.7,12.7,33.9,22.6l-13.8,14.1c-16.6-16.4-37.7-24.6-63.3-24.6
			c-17,0-32.4,3.8-46,11.3c-13.7,7.5-24.5,17.9-32.3,31.2c-7.8,13.3-11.7,28.2-11.7,44.5c0,16.4,3.9,31.2,11.7,44.4
			c7.8,13.2,18.5,23.6,32.1,31.2c13.6,7.6,28.9,11.4,45.9,11.4c21.6,0,39.9-5.4,54.9-16.2V212.1z"/>
		<path class="st4" d="M1545.6,107.1v210h-21.9v-96.9h-131.4v96.9h-22.2v-210h22.2v93.6h131.4v-93.6H1545.6z"/>
		<path class="st4" d="M1654.7,126.3h-73.8v-19.2h169.8v19.2h-73.8v190.8h-22.2V126.3z"/>
		<path class="st4" d="M1967.9,317.1l-0.3-126l-61.8,103.8h-21.9l-61.5-101.1v123.3h-45.6v-210h40.2l78.6,130.5l77.4-130.5h39.9
			l0.6,210H1967.9z"/>
		<path class="st4" d="M2225.9,278.1v39h-162.6v-210H2222v39h-110.4v45.6h97.5v37.8h-97.5v48.6H2225.9z"/>
		<path class="st4" d="M2398.4,317.1l-40.5-58.5h-2.4h-42.3v58.5h-48.6v-210h90.9c18.6,0,34.7,3.1,48.5,9.3
			c13.7,6.2,24.2,15,31.7,26.4c7.4,11.4,11.1,24.9,11.1,40.5c0,15.6-3.8,29.1-11.3,40.3c-7.5,11.3-18.2,20-32,26l47.1,67.5H2398.4z
			 M2386.1,156.1c-7.6-6.3-18.7-9.4-33.3-9.4h-39.6v73.2h39.6c14.6,0,25.7-3.2,33.3-9.6c7.6-6.4,11.4-15.4,11.4-27
			C2397.5,171.5,2393.7,162.4,2386.1,156.1z"/>
		<path class="st4" d="M2627,208.8h44.4V294c-11.4,8.6-24.6,15.2-39.6,19.8c-15,4.6-30.1,6.9-45.3,6.9c-21.8,0-41.4-4.6-58.8-13.9
			s-31-22.2-41-38.7c-9.9-16.5-14.8-35.1-14.8-56c0-20.8,5-39.5,14.8-56c9.9-16.5,23.6-29.4,41.3-38.7c17.6-9.3,37.4-14,59.4-14
			c18.4,0,35.1,3.1,50.1,9.3c15,6.2,27.6,15.2,37.8,27l-31.2,28.8c-15-15.8-33.1-23.7-54.3-23.7c-13.4,0-25.3,2.8-35.7,8.4
			c-10.4,5.6-18.5,13.5-24.3,23.7c-5.8,10.2-8.7,21.9-8.7,35.1c0,13,2.9,24.6,8.7,34.8c5.8,10.2,13.8,18.2,24.2,23.9
			c10.3,5.7,22,8.6,35.3,8.6c14,0,26.6-3,37.8-9V208.8z"/>
		<path class="st4" d="M2879,278.1v39h-162.6v-210h158.7v39h-110.4v45.6h97.5v37.8h-97.5v48.6H2879z"/>
	</g>
	<g>
		<path class="st4" d="M669.4,469.3v8.6h-66.3v-93.8h64.3v8.6H613V426h48.5v8.4H613v34.8H669.4z"/>
		<path class="st4" d="M799.4,414.5c5,5.1,7.6,12.6,7.6,22.5v40.9h-9.5v-39.9c0-7.3-1.8-12.9-5.3-16.8c-3.5-3.8-8.5-5.8-14.9-5.8
			c-7.3,0-13.1,2.3-17.3,6.8c-4.2,4.5-6.3,10.7-6.3,18.7v37h-9.5v-39.9c0-7.3-1.8-12.9-5.3-16.8c-3.5-3.8-8.6-5.8-15.1-5.8
			c-7.2,0-13,2.3-17.2,6.8c-4.2,4.5-6.4,10.7-6.4,18.7v37h-9.5v-70.5h9.1v12.9c2.5-4.3,6-7.6,10.5-9.9c4.5-2.3,9.6-3.5,15.4-3.5
			c5.9,0,11,1.3,15.3,3.8c4.3,2.5,7.6,6.2,9.7,11.1c2.6-4.6,6.3-8.3,11.2-10.9c4.9-2.6,10.4-4,16.7-4
			C787.4,406.8,794.4,409.4,799.4,414.5z"/>
		<path class="st4" d="M887.1,411.3c5.4,3,9.6,7.2,12.6,12.7c3,5.5,4.6,11.7,4.6,18.6c0,7.1-1.5,13.3-4.6,18.8
			c-3,5.5-7.2,9.7-12.5,12.7c-5.3,3-11.3,4.5-18,4.5c-5.7,0-10.9-1.2-15.5-3.6c-4.6-2.4-8.4-5.8-11.3-10.4v39.3h-9.5v-96.5h9.1v13.9
			c2.9-4.6,6.6-8.2,11.3-10.7c4.7-2.5,10-3.8,15.9-3.8C875.8,406.8,881.8,408.3,887.1,411.3z M881.9,466.7c4-2.3,7.2-5.5,9.4-9.7
			c2.3-4.2,3.4-9,3.4-14.3c0-5.4-1.1-10.1-3.4-14.3c-2.3-4.2-5.4-7.4-9.4-9.7c-4-2.3-8.5-3.5-13.4-3.5c-5,0-9.5,1.2-13.5,3.5
			c-4,2.3-7.1,5.6-9.4,9.7c-2.3,4.2-3.4,8.9-3.4,14.3c0,5.4,1.1,10.1,3.4,14.3c2.3,4.2,5.4,7.4,9.4,9.7c4,2.3,8.5,3.4,13.5,3.4
			C873.4,470.1,877.9,469,881.9,466.7z"/>
		<path class="st4" d="M934.2,473.9c-5.4-3.1-9.7-7.3-12.9-12.8c-3.1-5.4-4.7-11.6-4.7-18.5c0-6.9,1.6-13,4.7-18.5
			c3.1-5.4,7.4-9.7,12.9-12.7c5.4-3,11.6-4.6,18.4-4.6c6.8,0,12.9,1.5,18.4,4.6c5.4,3,9.7,7.3,12.8,12.7c3.1,5.5,4.6,11.6,4.6,18.5
			c0,6.9-1.5,13-4.6,18.5c-3.1,5.5-7.3,9.7-12.8,12.8c-5.5,3.1-11.6,4.6-18.4,4.6C945.7,478.5,939.6,477,934.2,473.9z M966,466.7
			c4-2.3,7.1-5.5,9.3-9.7c2.2-4.2,3.4-9,3.4-14.3c0-5.4-1.1-10.1-3.4-14.3c-2.2-4.2-5.3-7.4-9.3-9.7c-4-2.3-8.5-3.4-13.5-3.4
			c-5,0-9.5,1.1-13.5,3.4c-4,2.3-7.1,5.5-9.4,9.7c-2.3,4.2-3.4,9-3.4,14.3c0,5.4,1.1,10.1,3.4,14.3c2.3,4.2,5.4,7.4,9.4,9.7
			c4,2.3,8.5,3.4,13.5,3.4C957.5,470.1,962,469,966,466.7z"/>
		<path class="st4" d="M1109.2,407.4l-26.7,70.5h-9l-22.2-57.8l-22.2,57.8h-9l-26.5-70.5h9.1l22.1,59.9l22.6-59.9h8.2l22.5,59.9
			l22.4-59.9H1109.2z"/>
		<path class="st4" d="M1182.9,445.6h-59c0.5,7.3,3.3,13.2,8.4,17.8c5.1,4.5,11.5,6.8,19.3,6.8c4.4,0,8.4-0.8,12.1-2.3
			c3.7-1.6,6.8-3.9,9.5-6.9l5.4,6.2c-3.1,3.8-7,6.6-11.7,8.6c-4.7,2-9.8,2.9-15.5,2.9c-7.2,0-13.6-1.5-19.2-4.6
			c-5.6-3.1-9.9-7.3-13.1-12.8c-3.1-5.4-4.7-11.6-4.7-18.5c0-6.9,1.5-13,4.5-18.5c3-5.4,7.1-9.7,12.3-12.7c5.2-3,11.1-4.6,17.6-4.6
			c6.5,0,12.4,1.5,17.6,4.6c5.2,3,9.2,7.3,12.2,12.7c2.9,5.4,4.4,11.6,4.4,18.6L1182.9,445.6z M1131.8,421.5c-4.6,4.3-7.2,10-7.8,17
			h50c-0.6-7-3.2-12.6-7.8-17c-4.6-4.3-10.3-6.5-17.2-6.5C1142,415,1136.4,417.2,1131.8,421.5z"/>
		<path class="st4" d="M1221.5,410.5c4.4-2.4,9.9-3.6,16.4-3.6v9.2l-2.3-0.1c-7.4,0-13.2,2.3-17.4,6.8c-4.2,4.6-6.3,10.9-6.3,19.2
			v35.9h-9.5v-70.5h9.1v13.8C1213.8,416.5,1217.1,412.9,1221.5,410.5z"/>
		<path class="st4" d="M1255,390c-1.3-1.3-2-2.9-2-4.8c0-1.8,0.7-3.4,2-4.7c1.3-1.3,3-2,5-2c2,0,3.6,0.6,5,1.9c1.3,1.3,2,2.8,2,4.6
			c0,2-0.7,3.6-2,5c-1.3,1.3-3,2-5,2C1258,392,1256.3,391.3,1255,390z M1255.1,407.4h9.5v70.5h-9.5V407.4z"/>
		<path class="st4" d="M1348.2,414.6c5.2,5.1,7.8,12.6,7.8,22.4v40.9h-9.5v-39.9c0-7.3-1.8-12.9-5.5-16.8c-3.7-3.8-8.9-5.8-15.7-5.8
			c-7.6,0-13.6,2.3-18,6.8c-4.4,4.5-6.6,10.7-6.6,18.7v37h-9.5v-70.5h9.1v13c2.6-4.3,6.2-7.6,10.8-10c4.6-2.4,9.9-3.6,16-3.6
			C1335.9,406.8,1342.9,409.4,1348.2,414.6z"/>
		<path class="st4" d="M1447.4,407.4v61.9c0,12-2.9,20.8-8.8,26.6c-5.9,5.8-14.7,8.6-26.5,8.6c-6.5,0-12.7-1-18.6-2.9
			c-5.9-1.9-10.6-4.6-14.3-8l4.8-7.2c3.4,3,7.5,5.4,12.4,7.1c4.9,1.7,10,2.5,15.3,2.5c8.9,0,15.5-2.1,19.7-6.2
			c4.2-4.2,6.3-10.6,6.3-19.4v-9c-2.9,4.5-6.8,7.9-11.6,10.2c-4.8,2.3-10.1,3.5-15.9,3.5c-6.6,0-12.6-1.5-18-4.4
			c-5.4-2.9-9.6-7-12.7-12.2c-3.1-5.2-4.6-11.1-4.6-17.8c0-6.6,1.5-12.5,4.6-17.7c3.1-5.2,7.3-9.2,12.7-12.1
			c5.4-2.9,11.4-4.3,18.1-4.3c6,0,11.4,1.2,16.2,3.6c4.8,2.4,8.7,5.9,11.7,10.5v-13.5H1447.4z M1425.1,463.5
			c4.1-2.2,7.3-5.2,9.6-9.2c2.3-3.9,3.4-8.4,3.4-13.4c0-5-1.1-9.4-3.4-13.3c-2.3-3.9-5.4-6.9-9.5-9.1c-4.1-2.2-8.7-3.3-13.9-3.3
			c-5.1,0-9.7,1.1-13.7,3.2c-4.1,2.1-7.2,5.2-9.5,9.1c-2.3,3.9-3.4,8.4-3.4,13.4c0,5,1.1,9.5,3.4,13.4c2.3,3.9,5.4,7,9.5,9.2
			c4.1,2.2,8.6,3.3,13.7,3.3S1421,465.7,1425.1,463.5z"/>
		<path class="st4" d="M1577.5,469.3v8.6h-66.3v-93.8h64.3v8.6h-54.4V426h48.5v8.4h-48.5v34.8H1577.5z"/>
		<path class="st4" d="M1655.8,414.6c5.2,5.1,7.8,12.6,7.8,22.4v40.9h-9.5v-39.9c0-7.3-1.8-12.9-5.5-16.8c-3.7-3.8-8.9-5.8-15.7-5.8
			c-7.6,0-13.6,2.3-18,6.8c-4.4,4.5-6.6,10.7-6.6,18.7v37h-9.5v-70.5h9.1v13c2.6-4.3,6.2-7.6,10.8-10c4.6-2.4,9.9-3.6,16-3.6
			C1643.6,406.8,1650.6,409.4,1655.8,414.6z"/>
		<path class="st4" d="M1751.2,445.6h-59c0.5,7.3,3.3,13.2,8.4,17.8c5.1,4.5,11.5,6.8,19.3,6.8c4.4,0,8.4-0.8,12.1-2.3
			c3.7-1.6,6.8-3.9,9.5-6.9l5.4,6.2c-3.1,3.8-7,6.6-11.7,8.6c-4.7,2-9.8,2.9-15.5,2.9c-7.2,0-13.6-1.5-19.2-4.6
			c-5.6-3.1-9.9-7.3-13.1-12.8c-3.1-5.4-4.7-11.6-4.7-18.5c0-6.9,1.5-13,4.5-18.5c3-5.4,7.1-9.7,12.3-12.7c5.2-3,11.1-4.6,17.6-4.6
			c6.5,0,12.4,1.5,17.6,4.6c5.2,3,9.2,7.3,12.2,12.7c2.9,5.4,4.4,11.6,4.4,18.6L1751.2,445.6z M1700,421.5c-4.6,4.3-7.2,10-7.8,17
			h50c-0.6-7-3.2-12.6-7.8-17c-4.6-4.3-10.3-6.5-17.2-6.5C1710.3,415,1704.6,417.2,1700,421.5z"/>
		<path class="st4" d="M1789.8,410.5c4.4-2.4,9.9-3.6,16.4-3.6v9.2l-2.3-0.1c-7.4,0-13.2,2.3-17.4,6.8c-4.2,4.6-6.3,10.9-6.3,19.2
			v35.9h-9.5v-70.5h9.1v13.8C1782.1,416.5,1785.4,412.9,1789.8,410.5z"/>
		<path class="st4" d="M1888,407.4v61.9c0,12-2.9,20.8-8.8,26.6c-5.9,5.8-14.7,8.6-26.5,8.6c-6.5,0-12.7-1-18.6-2.9
			c-5.9-1.9-10.6-4.6-14.3-8l4.8-7.2c3.4,3,7.5,5.4,12.4,7.1c4.9,1.7,10,2.5,15.3,2.5c8.9,0,15.5-2.1,19.7-6.2
			c4.2-4.2,6.3-10.6,6.3-19.4v-9c-2.9,4.5-6.8,7.9-11.6,10.2c-4.8,2.3-10.1,3.5-15.9,3.5c-6.6,0-12.6-1.5-18-4.4
			c-5.4-2.9-9.6-7-12.7-12.2c-3.1-5.2-4.6-11.1-4.6-17.8c0-6.6,1.5-12.5,4.6-17.7c3.1-5.2,7.3-9.2,12.7-12.1
			c5.4-2.9,11.4-4.3,18.1-4.3c6,0,11.4,1.2,16.2,3.6c4.8,2.4,8.7,5.9,11.7,10.5v-13.5H1888z M1865.7,463.5c4.1-2.2,7.3-5.2,9.6-9.2
			c2.3-3.9,3.4-8.4,3.4-13.4c0-5-1.1-9.4-3.4-13.3c-2.3-3.9-5.4-6.9-9.5-9.1c-4.1-2.2-8.7-3.3-13.9-3.3c-5.1,0-9.7,1.1-13.7,3.2
			c-4.1,2.1-7.2,5.2-9.5,9.1c-2.3,3.9-3.4,8.4-3.4,13.4c0,5,1.1,9.5,3.4,13.4c2.3,3.9,5.4,7,9.5,9.2c4.1,2.2,8.6,3.3,13.7,3.3
			S1861.6,465.7,1865.7,463.5z"/>
		<path class="st4" d="M1973.9,407.4l-35.2,78.9c-2.9,6.6-6.2,11.3-9.9,14.1c-3.8,2.8-8.3,4.2-13.5,4.2c-3.4,0-6.6-0.5-9.5-1.6
			c-2.9-1.1-5.5-2.7-7.6-4.8l4.4-7.1c3.6,3.6,7.9,5.4,12.9,5.4c3.2,0,6-0.9,8.2-2.7c2.3-1.8,4.4-4.8,6.4-9.1l3.1-6.8l-31.5-70.4h9.9
			l26.5,59.9l26.5-59.9H1973.9z"/>
		<path class="st4" d="M2024.4,384.1h38.2c9.9,0,18.7,2,26.3,6c7.6,4,13.5,9.5,17.7,16.6c4.2,7.1,6.3,15.2,6.3,24.3
			c0,9.1-2.1,17.2-6.3,24.3c-4.2,7.1-10.1,12.6-17.7,16.6c-7.6,4-16.3,6-26.3,6h-38.2V384.1z M2062,469.3c8.2,0,15.4-1.6,21.6-4.9
			c6.2-3.3,10.9-7.8,14.3-13.5c3.4-5.8,5.1-12.4,5.1-19.9s-1.7-14.1-5.1-19.9c-3.4-5.8-8.2-10.3-14.3-13.5
			c-6.2-3.3-13.4-4.9-21.6-4.9h-27.7v76.6H2062z"/>
		<path class="st4" d="M2194.4,445.6h-59c0.5,7.3,3.4,13.2,8.4,17.8c5.1,4.5,11.5,6.8,19.3,6.8c4.4,0,8.4-0.8,12.1-2.3
			c3.7-1.6,6.8-3.9,9.5-6.9l5.4,6.2c-3.1,3.8-7,6.6-11.7,8.6c-4.7,2-9.8,2.9-15.5,2.9c-7.2,0-13.6-1.5-19.2-4.6
			c-5.6-3.1-9.9-7.3-13.1-12.8c-3.1-5.4-4.7-11.6-4.7-18.5c0-6.9,1.5-13,4.5-18.5c3-5.4,7.1-9.7,12.3-12.7c5.2-3,11.1-4.6,17.6-4.6
			c6.5,0,12.4,1.5,17.6,4.6c5.2,3,9.2,7.3,12.2,12.7c2.9,5.4,4.4,11.6,4.4,18.6L2194.4,445.6z M2143.3,421.5c-4.6,4.3-7.2,10-7.8,17
			h50c-0.6-7-3.2-12.6-7.8-17c-4.6-4.3-10.3-6.5-17.2-6.5C2153.6,415,2147.9,417.2,2143.3,421.5z"/>
		<path class="st4" d="M2224.5,474c-5.5-3-9.8-7.3-12.9-12.8c-3.1-5.5-4.7-11.7-4.7-18.6c0-6.9,1.6-13,4.7-18.5
			c3.1-5.4,7.4-9.7,12.9-12.7c5.5-3,11.7-4.6,18.7-4.6c6.1,0,11.5,1.2,16.3,3.6c4.8,2.4,8.6,5.8,11.3,10.4l-7.1,4.8
			c-2.3-3.5-5.3-6.1-8.8-7.8c-3.6-1.7-7.5-2.6-11.7-2.6c-5.1,0-9.7,1.1-13.7,3.4c-4.1,2.3-7.2,5.5-9.5,9.7c-2.3,4.2-3.4,9-3.4,14.3
			c0,5.5,1.1,10.3,3.4,14.4c2.3,4.2,5.4,7.4,9.5,9.6c4.1,2.3,8.6,3.4,13.7,3.4c4.2,0,8.1-0.8,11.7-2.5c3.6-1.7,6.5-4.3,8.8-7.8
			l7.1,4.8c-2.8,4.6-6.6,8-11.4,10.4c-4.8,2.4-10.2,3.6-16.2,3.6C2236.2,478.5,2230,477,2224.5,474z"/>
		<path class="st4" d="M2289.3,390c-1.3-1.3-2-2.9-2-4.8c0-1.8,0.7-3.4,2-4.7s3-2,5-2c2,0,3.6,0.6,5,1.9c1.3,1.3,2,2.8,2,4.6
			c0,2-0.7,3.6-2,5s-3,2-5,2C2292.3,392,2290.6,391.3,2289.3,390z M2289.4,407.4h9.5v70.5h-9.5V407.4z"/>
		<path class="st4" d="M2328,476.1c-5.2-1.7-9.3-3.7-12.3-6.2l4.3-7.5c2.9,2.3,6.7,4.2,11.1,5.7c4.5,1.5,9.1,2.2,13.9,2.2
			c6.4,0,11.2-1,14.3-3c3.1-2,4.6-4.8,4.6-8.5c0-2.6-0.8-4.6-2.5-6.1c-1.7-1.5-3.8-2.6-6.4-3.4c-2.6-0.8-6-1.5-10.3-2.2
			c-5.7-1.1-10.3-2.2-13.8-3.3c-3.5-1.1-6.5-3-8.9-5.7c-2.5-2.7-3.7-6.4-3.7-11.1c0-5.9,2.5-10.7,7.4-14.5
			c4.9-3.8,11.7-5.6,20.5-5.6c4.6,0,9.1,0.6,13.7,1.8c4.6,1.2,8.3,2.8,11.3,4.8l-4.2,7.6c-5.8-4-12.7-6-20.8-6
			c-6.1,0-10.7,1.1-13.7,3.2c-3.1,2.1-4.6,5-4.6,8.4c0,2.7,0.9,4.8,2.6,6.4c1.7,1.6,3.9,2.8,6.5,3.6c2.6,0.8,6.2,1.5,10.7,2.3
			c5.6,1.1,10.1,2.1,13.5,3.2c3.4,1.1,6.3,2.9,8.7,5.5c2.4,2.6,3.6,6.2,3.6,10.7c0,6.2-2.6,11.1-7.7,14.7
			c-5.1,3.6-12.3,5.4-21.4,5.4C2338.6,478.5,2333.2,477.7,2328,476.1z"/>
		<path class="st4" d="M2390.9,390c-1.3-1.3-2-2.9-2-4.8c0-1.8,0.7-3.4,2-4.7s3-2,5-2c2,0,3.6,0.6,5,1.9c1.3,1.3,2,2.8,2,4.6
			c0,2-0.7,3.6-2,5s-3,2-5,2C2393.9,392,2392.2,391.3,2390.9,390z M2391,407.4h9.5v70.5h-9.5V407.4z"/>
		<path class="st4" d="M2437.5,473.9c-5.5-3.1-9.7-7.3-12.9-12.8c-3.1-5.4-4.7-11.6-4.7-18.5c0-6.9,1.6-13,4.7-18.5
			c3.1-5.4,7.4-9.7,12.9-12.7c5.4-3,11.6-4.6,18.4-4.6c6.8,0,12.9,1.5,18.4,4.6c5.4,3,9.7,7.3,12.8,12.7c3.1,5.5,4.6,11.6,4.6,18.5
			c0,6.9-1.5,13-4.6,18.5c-3.1,5.5-7.3,9.7-12.8,12.8c-5.4,3.1-11.6,4.6-18.4,4.6C2449.1,478.5,2442.9,477,2437.5,473.9z
			 M2469.3,466.7c4-2.3,7.1-5.5,9.3-9.7c2.2-4.2,3.3-9,3.3-14.3c0-5.4-1.1-10.1-3.3-14.3c-2.2-4.2-5.3-7.4-9.3-9.7
			c-4-2.3-8.5-3.4-13.5-3.4c-5,0-9.5,1.1-13.5,3.4c-4,2.3-7.1,5.5-9.4,9.7c-2.3,4.2-3.4,9-3.4,14.3c0,5.4,1.1,10.1,3.4,14.3
			c2.3,4.2,5.4,7.4,9.4,9.7c4,2.3,8.5,3.4,13.5,3.4C2460.9,470.1,2465.3,469,2469.3,466.7z"/>
		<path class="st4" d="M2568.1,414.6c5.2,5.1,7.8,12.6,7.8,22.4v40.9h-9.5v-39.9c0-7.3-1.8-12.9-5.5-16.8c-3.7-3.8-8.9-5.8-15.7-5.8
			c-7.6,0-13.6,2.3-18,6.8c-4.4,4.5-6.6,10.7-6.6,18.7v37h-9.5v-70.5h9.1v13c2.6-4.3,6.2-7.6,10.8-10c4.6-2.4,9.9-3.6,16-3.6
			C2555.8,406.8,2562.9,409.4,2568.1,414.6z"/>
		<path class="st4" d="M2596.6,437.4h35.1v8.3h-35.1V437.4z"/>
		<path class="st4" d="M2752.4,384.1v93.8h-9.5v-75l-36.8,63.1h-4.7l-36.8-62.7v74.6h-9.5v-93.8h8.2l40.7,69.5l40.3-69.5H2752.4z"/>
		<path class="st4" d="M2826.8,413.7c4.9,4.6,7.4,11.4,7.4,20.4v43.7h-9.1v-11c-2.1,3.7-5.3,6.5-9.4,8.6c-4.2,2.1-9.1,3.1-14.8,3.1
			c-7.9,0-14.1-1.9-18.8-5.6c-4.6-3.8-7-8.7-7-14.9c0-6,2.2-10.8,6.5-14.5c4.3-3.7,11.2-5.5,20.7-5.5h22.4v-4.3
			c0-6.1-1.7-10.7-5.1-13.9c-3.4-3.2-8.4-4.8-14.9-4.8c-4.5,0-8.8,0.7-12.9,2.2c-4.1,1.5-7.6,3.5-10.6,6.1l-4.3-7.1
			c3.6-3,7.9-5.4,12.9-7c5-1.7,10.3-2.5,15.8-2.5C2814.8,406.8,2821.8,409.1,2826.8,413.7z M2816,467.3c3.8-2.5,6.7-6,8.6-10.7
			v-11.5h-22.1c-12.1,0-18.1,4.2-18.1,12.6c0,4.1,1.6,7.3,4.7,9.7c3.1,2.4,7.5,3.6,13.1,3.6C2807.6,471,2812.2,469.8,2816,467.3z"/>
		<path class="st4" d="M2886.1,442.5l-16.6,15.3v20.1h-9.5v-99.4h9.5v67.4l42.1-38.5h11.8l-30.2,28.8l33,41.7h-11.7L2886.1,442.5z"
			/>
		<path class="st4" d="M2999.1,445.6h-59c0.5,7.3,3.4,13.2,8.4,17.8c5.1,4.5,11.5,6.8,19.3,6.8c4.4,0,8.4-0.8,12.1-2.3
			c3.7-1.6,6.8-3.9,9.5-6.9l5.4,6.2c-3.1,3.8-7,6.6-11.7,8.6c-4.7,2-9.8,2.9-15.5,2.9c-7.2,0-13.6-1.5-19.2-4.6
			c-5.6-3.1-9.9-7.3-13.1-12.8c-3.1-5.4-4.7-11.6-4.7-18.5c0-6.9,1.5-13,4.5-18.5c3-5.4,7.1-9.7,12.3-12.7c5.2-3,11.1-4.6,17.6-4.6
			c6.5,0,12.4,1.5,17.6,4.6c5.2,3,9.2,7.3,12.2,12.7c2.9,5.4,4.4,11.6,4.4,18.6L2999.1,445.6z M2948,421.5c-4.6,4.3-7.2,10-7.8,17
			h50c-0.6-7-3.2-12.6-7.8-17c-4.6-4.3-10.3-6.5-17.2-6.5C2958.3,415,2952.6,417.2,2948,421.5z"/>
		<path class="st4" d="M3037.7,410.5c4.4-2.4,9.9-3.6,16.4-3.6v9.2l-2.3-0.1c-7.4,0-13.2,2.3-17.4,6.8c-4.2,4.6-6.3,10.9-6.3,19.2
			v35.9h-9.5v-70.5h9.1v13.8C3030,416.5,3033.3,412.9,3037.7,410.5z"/>
		<path class="st4" d="M3074.3,476.1c-5.2-1.7-9.3-3.7-12.3-6.2l4.3-7.5c2.9,2.3,6.7,4.2,11.1,5.7c4.5,1.5,9.1,2.2,13.9,2.2
			c6.4,0,11.2-1,14.3-3c3.1-2,4.6-4.8,4.6-8.5c0-2.6-0.8-4.6-2.5-6.1c-1.7-1.5-3.8-2.6-6.4-3.4c-2.6-0.8-6-1.5-10.3-2.2
			c-5.7-1.1-10.3-2.2-13.8-3.3c-3.5-1.1-6.5-3-8.9-5.7c-2.5-2.7-3.7-6.4-3.7-11.1c0-5.9,2.5-10.7,7.4-14.5
			c4.9-3.8,11.7-5.6,20.5-5.6c4.6,0,9.1,0.6,13.7,1.8c4.6,1.2,8.3,2.8,11.3,4.8l-4.2,7.6c-5.8-4-12.7-6-20.8-6
			c-6.1,0-10.7,1.1-13.7,3.2c-3.1,2.1-4.6,5-4.6,8.4c0,2.7,0.9,4.8,2.6,6.4c1.7,1.6,3.9,2.8,6.5,3.6c2.6,0.8,6.2,1.5,10.7,2.3
			c5.6,1.1,10.1,2.1,13.5,3.2c3.4,1.1,6.3,2.9,8.7,5.5c2.4,2.6,3.6,6.2,3.6,10.7c0,6.2-2.6,11.1-7.7,14.7
			c-5.1,3.6-12.3,5.4-21.4,5.4C3085,478.5,3079.5,477.7,3074.3,476.1z"/>
	</g>
</g>
</svg>
